<svg width="20" height="20" viewBox="0 0 20 20" fill="none" xmlns="http://www.w3.org/2000/svg">
<path fill-rule="evenodd" clip-rule="evenodd" d="M10 20C15.5228 20 20 15.5228 20 10C20 4.47715 15.5228 0 10 0C4.47715 0 0 4.47715 0 10C0 15.5228 4.47715 20 10 20ZM9.70403 12.214C9.78803 12.298 9.88603 12.34 9.99803 12.34C10.1194 12.34 10.2174 12.3027 10.292 12.228C10.3667 12.144 10.4087 12.0273 10.418 11.878L10.838 5.942C10.866 5.68067 10.796 5.47067 10.628 5.312C10.4694 5.144 10.2594 5.06 9.99803 5.06C9.72736 5.06 9.50803 5.144 9.34003 5.312C9.18137 5.47067 9.11603 5.68067 9.14403 5.942L9.56403 11.878C9.57336 12.018 9.62003 12.13 9.70403 12.214ZM9.35403 14.818C9.53136 14.986 9.74603 15.07 9.99803 15.07C10.25 15.07 10.46 14.986 10.628 14.818C10.796 14.65 10.88 14.4353 10.88 14.174C10.88 13.9127 10.796 13.698 10.628 13.53C10.46 13.3527 10.25 13.264 9.99803 13.264C9.74603 13.264 9.53136 13.3527 9.35403 13.53C9.18603 13.698 9.10203 13.9127 9.10203 14.174C9.10203 14.4353 9.18603 14.65 9.35403 14.818Z" fill="#FF2E00"/>
</svg>
